<?xml version="1.0"?>
<svg width="330" height="115" xmlns="http://www.w3.org/2000/svg" xmlns:svg="http://www.w3.org/2000/svg">

 <metadata id="metadata3346">image/svg+xmlCompact-Alpha.svgOnboard Devel Team at https://launchpad.net/~onboardGPL-3+ licenseOnboard Devel Teamhttps://launchpad.net/onboardThis file is part of OnboardCopyright © 2013, 2016, Francesco Fumanti &lt;francesco.fumanti@gmx.net&gt;
Copyright © 2011-2014, marmuta &lt;marmvta@gmail.com&gt;</metadata>
 <g class="layer">
  <title>Layer 1</title>
  <rect fill="#151530" height="15.028312" id="wordlist" stroke="#7f7f7f" stroke-miterlimit="4" stroke-width="0.971688" width="306.52832" x="0.485844" y="4.485844"/>
  <rect display="inline" fill="#2b2b63" fill-rule="nonzero" height="15" id="prediction" stroke="#7f7f7f" stroke-dashoffset="0" stroke-miterlimit="4" width="49" x="71.5" y="4.5"/>
  <rect display="inline" fill="#2b2b63" fill-rule="nonzero" height="15" id="correction" stroke="#7f7f7f" stroke-dashoffset="0" stroke-miterlimit="4" width="49" x="1.5" y="4.5"/>
  <rect fill="#2b2b63" height="14.685742" id="expand-corrections" stroke="#7f7f7f" stroke-miterlimit="4" stroke-width="1.314258" width="16.685743" x="52.657127" y="4.657129"/>
  <rect fill="#e5d8b2" height="18" id="AB01" stroke="#000000" width="18" x="47.5" y="77.5"/>
  <rect fill="#e5d8b2" height="18" id="AE02" stroke="#000000" width="18" x="38" y="20.5"/>
  <rect fill="#e5d8b2" height="18" id="AE03" stroke="#000000" width="18" x="57" y="20.5"/>
  <rect fill="#e5d8b2" height="18" id="AD09" stroke="#000000" width="18" x="183" y="39.5"/>
  <rect fill="#e5d8b2" height="18" id="AE01" stroke="#000000" width="18" x="19" y="20.5"/>
  <rect fill="#e5d8b2" height="18" id="AE06" stroke="#000000" width="18" x="114" y="20.5"/>
  <rect fill="#e5d8b2" height="18" id="AE07" stroke="#000000" width="18" x="133" y="20.5"/>
  <rect fill="#e5d8b2" height="18" id="AE04" stroke="#000000" width="18" x="76" y="20.5"/>
  <rect fill="#e5d8b2" height="18" id="AE05" stroke="#000000" width="18" x="95" y="20.5"/>
  <rect fill="#e5d8b2" height="18" id="AD03" stroke="#000000" width="18" x="69" y="39.5"/>
  <rect fill="#e5d8b2" height="18" id="AD02" stroke="#000000" width="18" x="50" y="39.5"/>
  <rect fill="#e5d8b2" height="18" id="AD01" stroke="#000000" transform="matrix(1 0 0 1 0 0)" width="18" x="31" y="39.5"/>
  <rect fill="#e5d8b2" height="18" id="AE09" stroke="#000000" width="18" x="171" y="20.5"/>
  <rect fill="#e5d8b2" height="18" id="AD07" stroke="#000000" width="18" x="145" y="39.5"/>
  <rect fill="#e5d8b2" height="18" id="AD06" stroke="#000000" width="18" x="126" y="39.5"/>
  <rect fill="#e5d8b2" height="18" id="AD05" stroke="#000000" width="18" x="107" y="39.5"/>
  <rect fill="#e5d8b2" height="18" id="AD04" stroke="#000000" width="18" x="88" y="39.5"/>
  <rect fill="#e5d8b2" height="18" id="AB10" stroke="#000000" width="18" x="218.5" y="77.5"/>
  <rect fill="#e5d8b2" height="18" id="AC11" stroke="#000000" width="18" x="225.49995" y="58.5"/>
  <rect fill="#e5d8b2" height="18" id="AC10" stroke="#000000" width="18" x="206.49995" y="58.5"/>
  <rect fill="#e5d8b2" height="18" id="TLDE" stroke="#000000" stroke-width="1" transform="matrix(1 0 0 1 0 0)" width="17.5" x="0.5" y="20.5"/>
  <rect fill="#e5d8b2" height="18" id="LSGT" stroke="#000000" width="18" x="28.5" y="77.5"/>
  <rect fill="#e5d8b2" height="18" id="BKSL" stroke="#000000" stroke-width="1" width="18" x="244.49995" y="58.5"/>
  <rect fill="#e5d8b2" height="18" id="AD10" stroke="#000000" width="18" x="202" y="39.5"/>
  <rect fill="#e5d8b2" height="18" id="AD11" stroke="#000000" width="18" x="221" y="39.5"/>
  <rect fill="#e5d8b2" height="18" id="AD12" stroke="#000000" width="18" x="240" y="39.5"/>
  <rect fill="#e5d8b2" height="18" id="AB08" stroke="#000000" width="18" x="180.5" y="77.5"/>
  <rect fill="#e5d8b2" height="18" id="AE11" stroke="#000000" width="18" x="209" y="20.5"/>
  <rect fill="#e5d8b2" height="18" id="AE10" stroke="#000000" width="18" x="190" y="20.5"/>
  <rect fill="#e5d8b2" height="18" id="AE12" stroke="#000000" width="18" x="228" y="20.5"/>
  <rect fill="#e5d8b2" height="18" id="AC04" stroke="#000000" width="18" x="92.499962" y="58.5"/>
  <rect fill="#e5d8b2" height="18" id="AC05" stroke="#000000" width="18" x="111.49996" y="58.5"/>
  <rect fill="#e5d8b2" height="18" id="AC06" stroke="#000000" width="18" x="130.49995" y="58.5"/>
  <rect fill="#e5d8b2" height="18" id="AC07" stroke="#000000" width="18" x="149.49995" y="58.5"/>
  <rect fill="#e5d8b2" height="18" id="AB09" stroke="#000000" width="18" x="199.5" y="77.5"/>
  <rect fill="#e5d8b2" height="18" id="AC01" stroke="#000000" width="18" x="35.499962" y="58.5"/>
  <rect fill="#e5d8b2" height="18" id="AC02" stroke="#000000" width="18" x="54.499962" y="58.5"/>
  <rect fill="#e5d8b2" height="18" id="AC03" stroke="#000000" width="18" x="73.499962" y="58.5"/>
  <rect fill="#e5d8b2" height="18" id="AB05" stroke="#000000" width="18" x="123.5" y="77.5"/>
  <rect fill="#e5d8b2" height="18" id="AB04" stroke="#000000" width="18" x="104.5" y="77.5"/>
  <rect fill="#e5d8b2" height="18" id="AE08" stroke="#000000" width="18" x="152" y="20.5"/>
  <rect fill="#e5d8b2" height="18" id="AB06" stroke="#000000" width="18" x="142.5" y="77.5"/>
  <rect fill="#e5d8b2" height="18" id="AC08" stroke="#000000" width="18" x="168.49995" y="58.5"/>
  <rect fill="#e5d8b2" height="18" id="AC09" stroke="#000000" width="18" x="187.49995" y="58.5"/>
  <rect fill="#e5d8b2" height="18" id="AB03" stroke="#000000" width="18" x="85.5" y="77.5"/>
  <rect fill="#e5d8b2" height="18" id="AB02" stroke="#000000" width="18" x="66.5" y="77.5"/>
  <rect fill="#e5d8b2" height="18" id="AD08" stroke="#000000" width="18" x="164" y="39.5"/>
  <rect fill="#e5d8b2" height="18" id="AB07" stroke="#000000" width="18" x="161.5" y="77.5"/>
  <rect fill="#f2e5d8" height="18" id="RCTL" stroke="#000000" width="23" x="261" y="96.5"/>
  <rect fill="#f2e5d8" height="18" id="LCTL" stroke="#000000" transform="matrix(1 0 0 1 0 0)" width="27" x="187.354462" y="168.096245"/>
  <rect fill="#f2e5d8" height="18" id="LALT" stroke="#000000" transform="matrix(1 0 0 1 0 0)" width="23" x="251.091553" y="160.819252"/>
  <rect fill="#d8cca5" height="18" id="MENU" stroke="#000000" width="23" x="237" y="96.5"/>
  <rect fill="#d8cca5" height="18" id="RWIN" stroke="#000000" width="23" x="213" y="96.5"/>
  <rect fill="#f2e5d8" height="18" id="LWIN" stroke="#000000" transform="matrix(1 0 0 1 0 0)" width="23" x="221.69249" y="158.941315"/>
  <rect fill="#d8cca5" height="18" id="BKSP" stroke="#000000" stroke-width="1" width="18" x="247" y="20.5"/>
  <rect fill="#d8cca5" height="18" id="DELE" stroke="#000000" stroke-width="1" width="18" x="266" y="20.5"/>
  <rect fill="#d8cca5" height="18" id="TAB" stroke="#000000" width="29.5" x="0.5" y="39.5"/>
  <rect fill="#f2e5d8" height="18" id="CAPS" stroke="#000000" width="34" x="0.5" y="58.5"/>
  <rect fill="#d8cca5" height="18" id="RTRN_" stroke="#000000" width="42" x="250.37061" y="-57.318851"/>
  <rect fill="#f2e5d8" height="18" id="LFSH" stroke="#000000" stroke-width="1" width="26.999998" x="0.5" y="77.5"/>
  <rect fill="#f2e5d8" height="18" id="RTSH" stroke="#000000" stroke-width="1" width="46.5" x="237.5" y="77.5"/>
  <rect fill="#e5d8b2" height="18" id="SPCE" stroke="#000000" width="207.326279" x="0.678417" y="96.5"/>
  <rect fill="#f2e5d8" height="18" id="RALT" stroke="#000000" width="22" x="367.69014" y="128.894367"/>
  <rect fill="#d8cca5" height="18" id="LEFT" stroke="#000000" width="18" x="209" y="96.5"/>
  <rect fill="#d8cca5" height="18" id="RGHT" stroke="#000000" width="18" x="228" y="96.5"/>
  <rect fill="#d8cca5" height="18" id="UP" stroke="#000000" width="18" x="247" y="96.5"/>
  <rect fill="#d8cca5" height="18" id="DOWN" stroke="#000000" width="18" x="266" y="96.5"/>
  <rect fill="#d8cca5" height="18" id="middleclick" stroke="#000000" width="18" x="285" y="20.5"/>
  <rect fill="#d8cca5" height="18" id="secondaryclick" stroke="#000000" width="18" x="285" y="39.5"/>
  <rect fill="#d8cca5" height="18" id="doubleclick" stroke="#000000" width="18" x="285" y="58.5"/>
  <rect fill="#d8cca5" height="18" id="dragclick" stroke="#000000" width="18" x="285" y="77.5"/>
  <rect fill="#d8cca5" height="18" id="hoverclick" stroke="#000000" width="18" x="285" y="96.5"/>
  <rect fill="#e5d8b2" height="46.169014" id="hide" stroke="#000000" transform="matrix(1 0 0 1 0 0)" width="25" x="304" y="20.5"/>
  <rect fill="#e5d8b2" height="18" id="showclick" stroke="#000000" transform="matrix(1 0 0 1 0 0)" width="12" x="302.826291" y="135.978874"/>
  <rect fill="#e5d8b2" height="46.873239" id="move" stroke="#000000" width="25.145539" x="303.854461" y="67.434271"/>
  <rect fill="#e5d8b2" height="18" id="layer0" stroke="#000000" transform="matrix(1 0 0 1 0 0)" width="25" x="303.530516" y="156.856812"/>
  <rect fill="#e5d8b2" height="18" id="layer1" stroke="#000000" transform="matrix(1 0 0 1 0 0)" width="25" x="305.643193" y="180.551643"/>
  <rect fill="#e5d8b2" height="18" id="layer2" stroke="#000000" transform="matrix(1 0 0 1 0 0)" width="25" x="306.347418" y="206.593899"/>
  <rect fill="#151530" fill-opacity="0.593607" height="18" id="inputline" stroke="#000000" width="246" x="-50.211643" y="-53.768021"/>
  <rect fill="#e5d8b2" height="18" id="move.wordlist" stroke="#000000" width="22" x="330" y="20.5"/>
  <rect fill="#e5d8b2" height="18" id="showclick.wordlist" stroke="#000000" width="22" x="330" y="39.5"/>
  <rect fill="#e5d8b2" height="18" id="layer0.wordlist" stroke="#000000" width="22" x="330" y="58.5"/>
  <rect fill="#e5d8b2" height="18" id="layer1.wordlist" stroke="#000000" width="22" x="330" y="77.5"/>
  <rect fill="#e5d8b2" height="18" id="layer2.wordlist" stroke="#000000" width="22" x="330" y="96.5"/>
  <rect fill="#2b2b63" height="15" id="hide.wordlist" stroke="#7f7f7f" stroke-miterlimit="4" stroke-width="1" width="17" x="285.5" y="4.5"/>
  <rect fill="#2b2b63" height="15" id="language.wordlist" stroke="#7f7f7f" stroke-miterlimit="4" stroke-width="1" width="17" x="265.5" y="4.5"/>
  <g id="RTRN">
   <path d="m259,39.5l25,0l0,37l-20.50001,0l0,-19l-4.49999,0l0,-18z" fill="#e5d8b2" id="RTRN_100pct" stroke="#000000"/>
   <path d="m263.75,44.25l15.5,0l0,27.5l-11,0l0,-19l-4.5,0l0,-8.5z" fill="#e5d8b2" id="RTRN_50pct" opacity="0.2" stroke="#000000"/>
  </g>
  <rect fill="#2b2b63" height="15" id="next-predictions.wordlist" stroke="#7f7f7f" stroke-miterlimit="4" stroke-width="1" width="17" x="225.5" y="4.5"/>
  <rect fill="#2b2b63" height="15" id="previous-predictions.wordlist" stroke="#7f7f7f" stroke-miterlimit="4" stroke-width="1" width="17" x="205.5" y="4.5"/>
  <rect fill="#2b2b63" height="15" id="pause-learning.wordlist" stroke="#7f7f7f" stroke-miterlimit="4" stroke-width="1" width="17" x="245.5" y="4.5"/>
 </g>
</svg>